<svg id="Layer_3" enable-background="new 0 0 64 64" height="512" viewBox="0 0 64 64" width="512" xmlns="http://www.w3.org/2000/svg" fill="#6087B5"><path d="m59.5 56c-1.345 0-2.609-.523-3.561-1.475l-5.939-5.939.586-.586-12.086-12.086-2.586 2.586 12.086 12.086.586-.586 5.939 5.939c1.329 1.33 3.096 2.061 4.975 2.061.827 0 1.5.673 1.5 1.5s-.673 1.5-1.5 1.5h-22.5c-2.206 0-4-1.794-4-4 0-3.309-2.691-6-6-6h-15v2h15c2.206 0 4 1.794 4 4 0 3.309 2.691 6 6 6h22.5c1.93 0 3.5-1.57 3.5-3.5s-1.57-3.5-3.5-3.5z"/><path d="m18.5 31c1.117 0 2.167-.379 3.04-1.046l-8.04-8.04-3.086 3.086 4.525 4.525c.952.952 2.216 1.475 3.561 1.475z"/><path d="m10 19c0 1.042.193 2.072.542 3.044l1.544-1.544-.793-.793c-.391-.391-.391-1.023 0-1.414l7-7c.391-.391 1.023-.391 1.414 0l.793.793 1.544-1.544c-.973-.35-2.003-.542-3.044-.542-4.963 0-9 4.037-9 9z"/><path d="m31 18.5c0-1.345-.523-2.609-1.475-3.561l-4.525-4.525-3.086 3.086 8.04 8.04c.667-.873 1.046-1.923 1.046-3.04z"/><path d="m17.05 14.222h7.9v13.557h-7.9z" transform="matrix(.707 -.707 .707 .707 -8.699 21)"/><path d="m27.55 25.429h7.9v12.142h-7.9z" transform="matrix(.707 -.707 .707 .707 -13.048 31.5)"/><path d="m20 37c2.439 0 4.849-.532 7.051-1.535l-4.074-4.074c-1.258 1.042-2.824 1.609-4.477 1.609-1.879 0-3.646-.731-4.975-2.061l-5.232-5.232c-.391-.391-.391-1.023 0-1.414l.722-.722c-.653-1.429-1.015-2.989-1.015-4.571 0-6.065 4.935-11 11-11 1.581 0 3.141.362 4.57 1.016l.723-.723c.391-.391 1.023-.391 1.414 0l5.232 5.232c1.33 1.329 2.061 3.096 2.061 4.975 0 1.653-.567 3.219-1.609 4.477l4.074 4.074c1.003-2.202 1.535-4.612 1.535-7.051 0-9.374-7.626-17-17-17s-17 7.626-17 17 7.626 17 17 17z"/><circle cx="57" cy="7" r="5"/><circle cx="49" cy="27" r="5"/><circle cx="7" cy="45" r="5"/></svg>